<?xml version="1.0" encoding="UTF-8"?>
<svg xmlns="http://www.w3.org/2000/svg" viewBox="0 0 32 32" width="32" height="32">
  <circle cx="16" cy="16" r="15" fill="#050a14"/>
  <circle cx="16" cy="16" r="14" fill="#0f1f35"/>
  <rect x="14" y="7" width="4" height="6" rx="1.2" fill="#e8c547"/>
  <circle cx="16" cy="8" r="3" fill="#e8c547"/>
  <rect x="5" y="12" width="22" height="4" rx="2" fill="#0d9488"/>
  <path d="M6 15h20v6a5 5 0 0 1-5 5H11a5 5 0 0 1-5-5v-6z" fill="#14b8a6"/>
  <path d="M8 16h16v4a3 3 0 0 1-3 3h-10a3 3 0 0 1-3-3v-4z" fill="#2dd4bf" opacity="0.85"/>
  <circle cx="10" cy="25" r="2" fill="#0d9488"/>
  <circle cx="22" cy="25" r="2" fill="#0d9488"/>
</svg>
